<svg width="35" height="35" viewBox="0 0 35 35" fill="none" xmlns="http://www.w3.org/2000/svg">
<path d="M23.88 4.73936C25.5707 4.7444 27.1907 5.41827 28.3862 6.61379C29.5817 7.8093 30.2556 9.42932 30.2606 11.12V23.88C30.2556 25.5707 29.5817 27.1907 28.3862 28.3862C27.1907 29.5817 25.5707 30.2556 23.88 30.2606H11.12C9.42932 30.2556 7.8093 29.5817 6.61379 28.3862C5.41827 27.1907 4.7444 25.5707 4.73936 23.88V11.12C4.7444 9.42932 5.41827 7.8093 6.61379 6.61379C7.8093 5.41827 9.42932 4.7444 11.12 4.73936H23.88ZM23.88 2.1875H11.12C6.20703 2.1875 2.1875 6.20703 2.1875 11.12V23.88C2.1875 28.793 6.20703 32.8125 11.12 32.8125H23.88C28.793 32.8125 32.8125 28.793 32.8125 23.88V11.12C32.8125 6.20703 28.793 2.1875 23.88 2.1875Z" fill="#908EAB"/>
<path d="M25.794 11.1201C25.4155 11.1201 25.0454 11.0079 24.7307 10.7975C24.4159 10.5872 24.1706 10.2883 24.0257 9.93853C23.8808 9.58879 23.8429 9.20393 23.9168 8.83264C23.9906 8.46135 24.1729 8.1203 24.4406 7.85261C24.7083 7.58492 25.0493 7.40263 25.4206 7.32877C25.7919 7.25492 26.1768 7.29282 26.5265 7.43769C26.8763 7.58256 27.1752 7.82789 27.3855 8.14266C27.5958 8.45743 27.7081 8.82749 27.7081 9.20606C27.7086 9.45757 27.6595 9.70671 27.5635 9.93917C27.4675 10.1716 27.3265 10.3829 27.1487 10.5607C26.9709 10.7386 26.7596 10.8795 26.5272 10.9755C26.2947 11.0715 26.0456 11.1207 25.794 11.1201ZM17.5 12.3957C18.5096 12.3957 19.4964 12.6951 20.3359 13.2559C21.1753 13.8168 21.8295 14.614 22.2158 15.5467C22.6022 16.4794 22.7033 17.5058 22.5063 18.4959C22.3094 19.4861 21.8232 20.3956 21.1094 21.1094C20.3955 21.8233 19.486 22.3095 18.4958 22.5064C17.5057 22.7034 16.4793 22.6023 15.5466 22.2159C14.6139 21.8296 13.8167 21.1754 13.2559 20.3359C12.695 19.4965 12.3956 18.5097 12.3956 17.5001C12.3971 16.1468 12.9353 14.8493 13.8923 13.8923C14.8492 12.9354 16.1467 12.3972 17.5 12.3957ZM17.5 9.84385C15.9857 9.84385 14.5055 10.2929 13.2464 11.1342C11.9874 11.9754 11.006 13.1712 10.4266 14.5702C9.84707 15.9692 9.69545 17.5086 9.99087 18.9938C10.2863 20.4789 11.0155 21.8431 12.0862 22.9139C13.157 23.9846 14.5212 24.7138 16.0063 25.0092C17.4915 25.3047 19.0309 25.153 20.4299 24.5736C21.8289 23.9941 23.0247 23.0127 23.8659 21.7537C24.7072 20.4946 25.1563 19.0144 25.1563 17.5001C25.1563 15.4695 24.3496 13.5221 22.9138 12.0863C21.478 10.6505 19.5306 9.84385 17.5 9.84385Z" fill="#908EAB"/>
</svg>
