<svg width="361" height="300" viewBox="0 0 361 300" fill="none" xmlns="http://www.w3.org/2000/svg">
<g clip-path="url(#clip0)">
<g opacity="0.8">
<path opacity="0.8" d="M360.648 0H189.486V191.035H360.648V0Z" fill="url(#paint0_linear)"/>
</g>
<path d="M357.816 127.547H192.314V186.875H357.816V127.547Z" fill="white"/>
<path d="M212.312 141.619H205.898V172.02H212.312V141.619Z" fill="#908EAB"/>
<g opacity="0.7">
<path opacity="0.7" d="M224.972 141.619H218.558V172.02H224.972V141.619Z" fill="#908EAB"/>
</g>
<g opacity="0.6">
<path opacity="0.6" d="M237.636 141.619H231.223V172.02H237.636V141.619Z" fill="#908EAB"/>
</g>
<g opacity="0.5">
<path opacity="0.5" d="M250.296 141.619H243.883V172.02H250.296V141.619Z" fill="#908EAB"/>
</g>
<g opacity="0.5">
<path opacity="0.5" d="M262.957 141.619H256.543V172.02H262.957V141.619Z" fill="#908EAB"/>
</g>
<g opacity="0.4">
<path opacity="0.4" d="M275.617 141.619H269.203V172.02H275.617V141.619Z" fill="#908EAB"/>
</g>
<g opacity="0.3">
<path opacity="0.3" d="M288.281 141.619H281.868V172.02H288.281V141.619Z" fill="#908EAB"/>
</g>
<path d="M334.387 172.099C342.933 172.099 349.862 165.17 349.862 156.624C349.862 148.077 342.933 141.148 334.387 141.148C325.84 141.148 318.911 148.077 318.911 156.624C318.911 165.17 325.84 172.099 334.387 172.099Z" fill="#9D5BFE"/>
<path d="M357.816 65.9078H192.314V125.236H357.816V65.9078Z" fill="white"/>
<path d="M212.312 79.9797H205.898V110.381H212.312V79.9797Z" fill="#908EAB"/>
<g opacity="0.7">
<path opacity="0.7" d="M224.972 79.9797H218.558V110.381H224.972V79.9797Z" fill="#908EAB"/>
</g>
<g opacity="0.6">
<path opacity="0.6" d="M237.636 79.9797H231.223V110.381H237.636V79.9797Z" fill="#908EAB"/>
</g>
<g opacity="0.5">
<path opacity="0.5" d="M250.296 79.9797H243.883V110.381H250.296V79.9797Z" fill="#908EAB"/>
</g>
<g opacity="0.5">
<path opacity="0.5" d="M262.957 79.9797H256.543V110.381H262.957V79.9797Z" fill="#908EAB"/>
</g>
<g opacity="0.4">
<path opacity="0.4" d="M275.617 79.9797H269.203V110.381H275.617V79.9797Z" fill="#908EAB"/>
</g>
<g opacity="0.3">
<path opacity="0.3" d="M288.281 79.9797H281.868V110.381H288.281V79.9797Z" fill="#908EAB"/>
</g>
<path d="M334.387 110.464C342.933 110.464 349.862 103.535 349.862 94.9887C349.862 86.4419 342.933 79.5133 334.387 79.5133C325.84 79.5133 318.911 86.4419 318.911 94.9887C318.911 103.535 325.84 110.464 334.387 110.464Z" fill="#9D5BFE"/>
<path d="M357.816 4.26868H192.314V63.5965H357.816V4.26868Z" fill="white"/>
<path d="M212.312 18.3447H205.898V48.7458H212.312V18.3447Z" fill="#908EAB"/>
<g opacity="0.7">
<path opacity="0.7" d="M224.972 18.3447H218.558V48.7458H224.972V18.3447Z" fill="#908EAB"/>
</g>
<g opacity="0.6">
<path opacity="0.6" d="M237.636 18.3447H231.223V48.7458H237.636V18.3447Z" fill="#908EAB"/>
</g>
<g opacity="0.5">
<path opacity="0.5" d="M250.296 18.3447H243.883V48.7458H250.296V18.3447Z" fill="#908EAB"/>
</g>
<g opacity="0.5">
<path opacity="0.5" d="M262.957 18.3447H256.543V48.7458H262.957V18.3447Z" fill="#908EAB"/>
</g>
<g opacity="0.4">
<path opacity="0.4" d="M275.617 18.3447H269.203V48.7458H275.617V18.3447Z" fill="#908EAB"/>
</g>
<g opacity="0.3">
<path opacity="0.3" d="M288.281 18.3447H281.868V48.7458H288.281V18.3447Z" fill="#908EAB"/>
</g>
<path d="M334.386 50.0326C343.6 50.0326 351.07 42.5634 351.07 33.3495C351.07 24.1357 343.6 16.6664 334.386 16.6664C325.173 16.6664 317.703 24.1357 317.703 33.3495C317.703 42.5634 325.173 50.0326 334.386 50.0326Z" fill="url(#paint1_linear)"/>
<path d="M334.386 112.084C343.6 112.084 351.07 104.615 351.07 95.401C351.07 86.1872 343.6 78.7179 334.386 78.7179C325.173 78.7179 317.703 86.1872 317.703 95.401C317.703 104.615 325.173 112.084 334.386 112.084Z" fill="url(#paint2_linear)"/>
<path d="M334.386 173.719C343.6 173.719 351.07 166.25 351.07 157.036C351.07 147.822 343.6 140.353 334.386 140.353C325.173 140.353 317.703 147.822 317.703 157.036C317.703 166.25 325.173 173.719 334.386 173.719Z" fill="url(#paint3_linear)"/>
<path d="M334.387 48.8249C342.933 48.8249 349.862 41.8963 349.862 33.3495C349.862 24.8027 342.933 17.8741 334.387 17.8741C325.84 17.8741 318.911 24.8027 318.911 33.3495C318.911 41.8963 325.84 48.8249 334.387 48.8249Z" fill="#9D5BFE"/>
<g opacity="0.8">
<path opacity="0.8" d="M242.846 289.589H13.772V143.339C13.772 142.475 13.9422 141.619 14.2728 140.821C14.6035 140.022 15.0882 139.297 15.6992 138.686C16.3102 138.075 17.0356 137.59 17.8339 137.26C18.6322 136.929 19.4878 136.759 20.3519 136.759H236.262C237.126 136.759 237.982 136.929 238.78 137.26C239.578 137.59 240.304 138.075 240.915 138.686C241.526 139.297 242.01 140.022 242.341 140.821C242.672 141.619 242.842 142.475 242.842 143.339L242.846 289.589Z" fill="url(#paint4_linear)"/>
</g>
<path d="M23.5087 139.449H233.109C234.854 139.449 236.528 140.142 237.762 141.376C238.996 142.61 239.689 144.284 239.689 146.029V289.589H16.9287V146.029C16.9287 144.284 17.622 142.61 18.8559 141.376C20.0899 140.142 21.7636 139.449 23.5087 139.449Z" fill="#3C4B70"/>
<path d="M232.518 148.182H24.1001V284.883H232.518V148.182Z" fill="#516083"/>
<path opacity="0.8" d="M232.435 154.82H24.8997V277.807H232.435V154.82Z" fill="#233051"/>
<path d="M232.435 148.286H24.8997V154.82H232.435V148.286Z" fill="#2F3E64"/>
<path d="M29.3474 153.034C30.2214 153.034 30.9299 152.325 30.9299 151.451C30.9299 150.577 30.2214 149.869 29.3474 149.869C28.4734 149.869 27.7649 150.577 27.7649 151.451C27.7649 152.325 28.4734 153.034 29.3474 153.034Z" fill="#FF5252"/>
<path d="M33.7036 153.034C34.5776 153.034 35.2861 152.325 35.2861 151.451C35.2861 150.577 34.5776 149.869 33.7036 149.869C32.8296 149.869 32.1211 150.577 32.1211 151.451C32.1211 152.325 32.8296 153.034 33.7036 153.034Z" fill="#FFFF00"/>
<path d="M38.0637 153.034C38.9377 153.034 39.6462 152.325 39.6462 151.451C39.6462 150.577 38.9377 149.869 38.0637 149.869C37.1897 149.869 36.4812 150.577 36.4812 151.451C36.4812 152.325 37.1897 153.034 38.0637 153.034Z" fill="#69F0AE"/>
<g opacity="0.8">
<path opacity="0.8" d="M249.255 299.413C236.503 300.379 17.5159 299.992 9.86154 299.413C-0.170808 294.578 -5.9106e-05 275.821 -5.9106e-05 275.821L100.427 275.15L100.765 280.86H143.759L145.425 275.821H256.735C256.735 275.821 258.946 293.033 249.255 299.413Z" fill="url(#paint5_linear)"/>
</g>
<path d="M255.102 277.332H145.967C146.396 277.816 146.675 278.414 146.77 279.054C146.866 279.693 146.773 280.347 146.503 280.934C146.233 281.522 145.798 282.018 145.251 282.363C144.704 282.708 144.069 282.886 143.422 282.875H101.777C101.13 282.886 100.495 282.708 99.9477 282.363C99.4006 282.018 98.9657 281.522 98.696 280.934C98.4262 280.347 98.3333 279.693 98.4285 279.054C98.5237 278.414 98.803 277.816 99.2322 277.332H1.51165C1.51165 277.332 1.34507 293.624 11.2525 297.822C18.8111 298.326 235.121 298.655 247.714 297.822C257.288 292.279 255.102 277.332 255.102 277.332Z" fill="#3C4B70"/>
<path d="M24.1835 282.201C24.9264 282.201 25.5287 281.599 25.5287 280.856C25.5287 280.113 24.9264 279.511 24.1835 279.511C23.4406 279.511 22.8384 280.113 22.8384 280.856C22.8384 281.599 23.4406 282.201 24.1835 282.201Z" fill="#E0E0E0"/>
<path d="M28.2148 282.201C28.9577 282.201 29.5599 281.599 29.5599 280.856C29.5599 280.113 28.9577 279.511 28.2148 279.511C27.4719 279.511 26.8696 280.113 26.8696 280.856C26.8696 281.599 27.4719 282.201 28.2148 282.201Z" fill="#E0E0E0"/>
<path d="M32.246 282.201C32.9889 282.201 33.5912 281.599 33.5912 280.856C33.5912 280.113 32.9889 279.511 32.246 279.511C31.5031 279.511 30.9009 280.113 30.9009 280.856C30.9009 281.599 31.5031 282.201 32.246 282.201Z" fill="#E0E0E0"/>
<g opacity="0.7">
<path opacity="0.7" d="M121.833 159.655L81.4124 184.53C81.4124 184.53 81.4124 235.837 121.833 263.819C162.254 235.833 162.254 184.53 162.254 184.53L121.833 159.655Z" fill="url(#paint6_linear)"/>
</g>
<path d="M121.833 162.591L83.707 186.067C83.707 186.067 83.707 234.484 121.854 260.891C160.001 234.484 160.001 186.067 160.001 186.067L121.833 162.591Z" fill="#9D5BFE"/>
<path opacity="0.05" d="M122.483 162.591L121.829 163.008V260.458L122.483 260.916C160.63 234.509 160.63 186.092 160.63 186.092L122.483 162.591Z" fill="black"/>
<path d="M121.833 168.264L88.1006 189.028C88.1006 189.028 88.1006 231.856 121.833 255.219C155.566 231.856 155.566 189.028 155.566 189.028L121.833 168.264Z" fill="#9D5BFE"/>
<path opacity="0.08" d="M121.833 168.426V255.365C155.566 232.002 155.566 189.174 155.566 189.174L121.833 168.426Z" fill="black"/>
<path d="M99.5322 127.593V41.3871H170.746" stroke="#162447" stroke-width="2" stroke-miterlimit="10" stroke-dasharray="12 12"/>
<path d="M77.4602 101.356V15.1505H148.674" stroke="#162447" stroke-width="2" stroke-miterlimit="10" stroke-dasharray="12 12"/>
<path d="M298.18 198.806V266.272H260.699" stroke="#162447" stroke-width="2" stroke-miterlimit="10" stroke-dasharray="12 12"/>
<path d="M320.669 213.798V281.264H283.188" stroke="#162447" stroke-width="2" stroke-miterlimit="10" stroke-dasharray="12 12"/>
</g>
<defs>
<linearGradient id="paint0_linear" x1="275.067" y1="191.035" x2="275.067" y2="0" gradientUnits="userSpaceOnUse">
<stop stop-color="#808080" stop-opacity="0.25"/>
<stop offset="0.54" stop-color="#808080" stop-opacity="0.12"/>
<stop offset="1" stop-color="#808080" stop-opacity="0.1"/>
</linearGradient>
<linearGradient id="paint1_linear" x1="27108.7" y1="4025.28" x2="27108.7" y2="1351.98" gradientUnits="userSpaceOnUse">
<stop stop-color="#808080" stop-opacity="0.25"/>
<stop offset="0.54" stop-color="#808080" stop-opacity="0.12"/>
<stop offset="1" stop-color="#808080" stop-opacity="0.1"/>
</linearGradient>
<linearGradient id="paint2_linear" x1="27108.7" y1="9058.9" x2="27108.7" y2="6385.6" gradientUnits="userSpaceOnUse">
<stop stop-color="#808080" stop-opacity="0.25"/>
<stop offset="0.54" stop-color="#808080" stop-opacity="0.12"/>
<stop offset="1" stop-color="#808080" stop-opacity="0.1"/>
</linearGradient>
<linearGradient id="paint3_linear" x1="27108.7" y1="14058.7" x2="27108.7" y2="11385.4" gradientUnits="userSpaceOnUse">
<stop stop-color="#808080" stop-opacity="0.25"/>
<stop offset="0.54" stop-color="#808080" stop-opacity="0.12"/>
<stop offset="1" stop-color="#808080" stop-opacity="0.1"/>
</linearGradient>
<linearGradient id="paint4_linear" x1="108847" y1="120136" x2="108847" y2="64051.7" gradientUnits="userSpaceOnUse">
<stop stop-color="#808080" stop-opacity="0.25"/>
<stop offset="0.54" stop-color="#808080" stop-opacity="0.12"/>
<stop offset="1" stop-color="#808080" stop-opacity="0.1"/>
</linearGradient>
<linearGradient id="paint5_linear" x1="122181" y1="20409" x2="122181" y2="18925.7" gradientUnits="userSpaceOnUse">
<stop stop-color="#808080" stop-opacity="0.25"/>
<stop offset="0.54" stop-color="#808080" stop-opacity="0.12"/>
<stop offset="1" stop-color="#808080" stop-opacity="0.1"/>
</linearGradient>
<linearGradient id="paint6_linear" x1="37232.3" y1="75501.9" x2="37232.3" y2="49447.6" gradientUnits="userSpaceOnUse">
<stop stop-color="#808080" stop-opacity="0.25"/>
<stop offset="0.54" stop-color="#808080" stop-opacity="0.12"/>
<stop offset="1" stop-color="#808080" stop-opacity="0.1"/>
</linearGradient>
<clipPath id="clip0">
<rect width="361" height="300" fill="white"/>
</clipPath>
</defs>
</svg>
