<svg width="350" height="300" viewBox="0 0 350 300" fill="none" xmlns="http://www.w3.org/2000/svg">
<rect y="21.1765" width="206.471" height="49.4118" rx="9" fill="#233051"/>
<rect x="8" y="31" width="30" height="30" rx="5" fill="#3C4B70"/>
<rect x="46" y="31" width="42" height="8" rx="4" fill="#3C4B70"/>
<rect x="46" y="44" width="74" height="8" rx="4" fill="#2F3E64"/>
<path d="M82.0588 74.1177V114.706H169.412" stroke="#CACCD8" stroke-linecap="square" stroke-dasharray="3 3"/>
<rect x="3.5293" y="151.765" width="247.059" height="49.4118" rx="9" fill="#233051"/>
<rect x="11.5293" y="161" width="30" height="30" rx="5" fill="#3C4B70"/>
<rect x="50" y="162" width="43" height="7" rx="3.5" fill="#3C4B70"/>
<rect x="50" y="172" width="101" height="7" rx="3.5" fill="#2F3E64"/>
<rect x="50" y="183" width="69" height="7" rx="3.5" fill="#2F3E64"/>
<rect x="3.5293" y="232.941" width="210" height="49.4118" rx="9" fill="#233051"/>
<rect x="11.5293" y="243" width="30" height="30" rx="5" fill="#3C4B70"/>
<rect x="50" y="243" width="42" height="7" rx="3.5" fill="#3C4B70"/>
<rect x="50" y="255" width="59" height="7" rx="3.5" fill="#2F3E64"/>
<g clip-path="url(#clip0)">
<rect x="190.588" y="264.706" width="35.2941" height="35.2941" rx="17.6471" fill="white"/>
<path d="M208.235 264.706C198.489 264.706 190.588 272.607 190.588 282.353C190.588 292.099 198.489 300 208.235 300C217.981 300 225.882 292.099 225.882 282.353C225.872 272.611 217.977 264.716 208.235 264.706ZM217.95 276.942L205.345 289.547C204.853 290.039 204.055 290.039 203.562 289.547L198.52 284.505C198.02 284.021 198.006 283.223 198.489 282.722C198.973 282.221 199.771 282.208 200.272 282.691C200.282 282.701 200.293 282.712 200.303 282.722L204.454 286.873L216.168 275.159C216.668 274.676 217.466 274.689 217.95 275.19C218.422 275.679 218.422 276.453 217.95 276.942Z" fill="#6FCF97"/>
</g>
<rect x="174.706" y="86.4706" width="174.706" height="49.4118" rx="9" fill="#233051"/>
<rect x="182.706" y="96.2905" width="30" height="30" rx="5" fill="#3C4B70"/>
<rect x="221" y="97" width="42" height="6" rx="3" fill="#3C4B70"/>
<rect x="221" y="107" width="62" height="6" rx="3" fill="#2F3E64"/>
<rect x="221" y="117" width="37" height="8" rx="4" fill="#2F3E64"/>
<path d="M297.353 136.765V179.118H251.471" stroke="#CACCD8" stroke-linecap="square" stroke-dasharray="3 3"/>
<path d="M93.5293 201.177V232.941" stroke="#CACCD8" stroke-dasharray="3 3"/>
<rect x="183.529" width="45.8824" height="35.2941" rx="6" fill="#F2C94C"/>
<path d="M206 28C207.294 28 208.344 26.9507 208.344 25.6562C208.344 24.3618 207.294 23.3125 206 23.3125C204.706 23.3125 203.656 24.3618 203.656 25.6562C203.656 26.9507 204.706 28 206 28Z" fill="white"/>
<path d="M206 8C202.64 8 199.906 10.7336 199.906 14.0938V14.6797H204.594V14.0938C204.594 13.3183 205.225 12.6875 206 12.6875C206.775 12.6875 207.406 13.3183 207.406 14.0938C207.406 14.507 207.225 14.898 206.909 15.1668L203.656 17.932V22.1406H208.344V20.0993L209.944 18.7385C211.31 17.5778 212.094 15.8849 212.094 14.0938C212.094 10.7336 209.36 8 206 8V8Z" fill="white"/>
<defs>
<clipPath id="clip0">
<rect width="35.2941" height="35.2941" fill="white" transform="translate(190.588 264.706)"/>
</clipPath>
</defs>
</svg>
