<svg width="50" height="50" viewBox="0 0 50 50" fill="none" xmlns="http://www.w3.org/2000/svg">
<g clip-path="url(#clip0)">
<path d="M46.4887 15.7266H45.1193V30.7783C45.1193 33.1219 43.7548 35.241 41.0193 35.241H14.219V35.9566C14.219 38.0285 16.5756 40.12 18.9955 40.12H39.4857L47.3246 44.729L46.1878 40.12H46.4887C48.9071 40.12 49.9983 38.0334 49.9983 35.9566V19.2997C49.9983 17.2277 48.9071 15.7266 46.4887 15.7266Z" fill="#9D5BFE"/>
<path d="M37.0186 5.26932H5.89058C3.15183 5.26932 0 7.70231 0 10.0475V28.913C0 31.0727 2.67044 32.6324 5.23191 32.8731L3.56492 39.2011L14.2467 32.917H37.0186C39.7573 32.917 42.2847 31.2565 42.2847 28.913V13.6498V10.0475C42.2847 7.70231 39.7557 5.26932 37.0186 5.26932ZM10.6395 21.1944C9.08632 21.1944 7.82754 19.9356 7.82754 18.3824C7.82754 16.8293 9.08632 15.5705 10.6395 15.5705C12.191 15.5705 13.4514 16.8293 13.4514 18.3824C13.4514 19.9356 12.191 21.1944 10.6395 21.1944ZM21.1423 21.1944C19.5892 21.1944 18.3304 19.9356 18.3304 18.3824C18.3304 16.8293 19.5892 15.5705 21.1423 15.5705C22.6955 15.5705 23.9543 16.8293 23.9543 18.3824C23.9543 19.9356 22.6955 21.1944 21.1423 21.1944ZM31.6468 21.1944C30.0937 21.1944 28.8333 19.9356 28.8333 18.3824C28.8333 16.8293 30.0937 15.5705 31.6468 15.5705C33.1967 15.5705 34.4588 16.8293 34.4588 18.3824C34.4588 19.9356 33.1967 21.1944 31.6468 21.1944Z" fill="#9D5BFE"/>
</g>
<defs>
<clipPath id="clip0">
<rect width="49.9984" height="50" fill="white"/>
</clipPath>
</defs>
</svg>
