<svg width="50" height="50" viewBox="0 0 50 50" fill="none" xmlns="http://www.w3.org/2000/svg">
<path d="M42.7823 26.6915H38.9155C39.3097 27.7706 39.525 28.9351 39.525 30.1489V44.7632C39.525 45.2692 39.4369 45.755 39.2767 46.2067H45.6693C48.0573 46.2067 49.9999 44.264 49.9999 41.8761V33.9092C50 29.9294 46.7622 26.6915 42.7823 26.6915Z" fill="#9D5BFE"/>
<path d="M10.4751 30.149C10.4751 28.9351 10.6904 27.7707 11.0846 26.6916H7.21779C3.2379 26.6916 0 29.9295 0 33.9093V41.8763C0 44.2641 1.94268 46.2069 4.33067 46.2069H10.7235C10.5632 45.755 10.4751 45.2693 10.4751 44.7633V30.149Z" fill="#9D5BFE"/>
<path d="M29.4201 22.9312H20.5801C16.6002 22.9312 13.3623 26.1691 13.3623 30.149V44.7633C13.3623 45.5605 14.0086 46.2068 14.8059 46.2068H35.1943C35.9916 46.2068 36.6379 45.5606 36.6379 44.7633V30.149C36.6379 26.1691 33.4 22.9312 29.4201 22.9312Z" fill="#9D5BFE"/>
<path d="M24.9999 3.79298C20.2135 3.79298 16.3196 7.68694 16.3196 12.4734C16.3196 15.72 18.1115 18.5554 20.7578 20.0441C22.0129 20.7501 23.46 21.1537 24.9999 21.1537C26.5397 21.1537 27.9868 20.7501 29.2419 20.0441C31.8883 18.5554 33.6801 15.7199 33.6801 12.4734C33.6801 7.68703 29.7862 3.79298 24.9999 3.79298Z" fill="#9D5BFE"/>
<path d="M9.75758 11.8837C6.17798 11.8837 3.26587 14.7958 3.26587 18.3754C3.26587 21.955 6.17798 24.8671 9.75758 24.8671C10.6656 24.8671 11.5302 24.6791 12.3157 24.341C13.6737 23.7563 14.7934 22.7213 15.4863 21.4249C15.9726 20.5151 16.2493 19.4771 16.2493 18.3754C16.2493 14.7959 13.3372 11.8837 9.75758 11.8837Z" fill="#9D5BFE"/>
<path d="M40.2424 11.8837C36.6628 11.8837 33.7507 14.7958 33.7507 18.3754C33.7507 19.4772 34.0274 20.5152 34.5137 21.4249C35.2066 22.7214 36.3263 23.7564 37.6843 24.341C38.4698 24.6791 39.3344 24.8671 40.2424 24.8671C43.822 24.8671 46.7342 21.955 46.7342 18.3754C46.7342 14.7958 43.822 11.8837 40.2424 11.8837Z" fill="#9D5BFE"/>
</svg>
