<svg width="50" height="50" viewBox="0 0 50 50" fill="none" xmlns="http://www.w3.org/2000/svg">
<path d="M15.2698 31.8516C15.6436 34.2999 16.209 36.7359 16.9196 38.9923C19.5079 39.4157 22.2228 39.6484 24.9999 39.6484C27.7751 39.6484 30.4927 39.415 33.0814 38.9889C33.7917 36.7336 34.3566 34.2987 34.7301 31.8516C30.4248 32.2674 26.6067 32.3242 24.9999 32.3242C23.3932 32.3242 19.575 32.2674 15.2698 31.8516Z" fill="#9D5BFE"/>
<path d="M49.7892 28.0796C46.8706 29.8702 42.2025 30.9048 37.7309 31.5056C37.4128 33.8436 36.9379 36.1412 36.3218 38.3148C41.3907 37.0956 45.8383 35.0945 48.8115 32.5405C49.2685 31.105 49.5988 29.6139 49.7892 28.0796Z" fill="#9D5BFE"/>
<path d="M31.9691 42.083C29.7096 42.379 27.3918 42.5781 25 42.5781C22.6093 42.5781 20.2911 42.3882 18.0359 42.0956C19.9127 46.6599 22.4056 50 25 50C27.5967 50 30.0919 46.6534 31.9691 42.083Z" fill="#9D5BFE"/>
<path d="M0.210938 28.0796C0.401291 29.6139 0.732025 31.1058 1.18903 32.5417C4.1786 35.117 8.61395 37.1323 13.6864 38.3446C13.0661 36.1622 12.5889 33.8543 12.2692 31.5056C7.79761 30.9048 3.12956 29.8702 0.210938 28.0796Z" fill="#9D5BFE"/>
<path d="M31.2217 49.1898C37.6685 47.5212 43.0926 43.2343 46.4038 37.6358C43.2387 39.3799 39.45 40.7108 35.2637 41.5474C34.1571 44.5316 32.7849 47.2343 31.2217 49.1898Z" fill="#9D5BFE"/>
<path d="M3.5061 37.6484C6.81764 43.2404 12.3364 47.5224 18.7782 49.1898C17.2165 47.2359 15.8455 44.5362 14.7389 41.5554C10.5553 40.7246 6.67383 39.3974 3.5061 37.6484Z" fill="#9D5BFE"/>
<path d="M20.6055 4.49219C20.6055 2.06528 18.6378 0 16.2109 0C13.784 0 11.8164 2.06528 11.8164 4.49219C11.8164 6.9191 13.784 8.88672 16.2109 8.88672C18.6378 8.88672 20.6055 6.9191 20.6055 4.49219Z" fill="#9D5BFE"/>
<path d="M33.7891 0C31.3622 0 29.3945 2.06528 29.3945 4.49219C29.3945 6.9191 31.3622 8.88672 33.7891 8.88672C36.216 8.88672 38.1836 6.9191 38.1836 4.49219C38.1836 2.06528 36.216 0 33.7891 0Z" fill="#9D5BFE"/>
<path d="M8.88672 19.1406V20.6055H23.5352V19.1406C23.5352 15.0955 20.256 11.8164 16.2109 11.8164C12.1658 11.8164 8.88672 15.0955 8.88672 19.1406Z" fill="#9D5BFE"/>
<path d="M44.043 19.7632V23.5352H5.95703V19.7632C2.30598 20.7829 0 22.0974 0 23.5352C0 26.7712 11.2469 29.3945 25 29.3945C38.7531 29.3945 50 26.7712 50 23.5352C50 22.0974 47.694 20.7829 44.043 19.7632Z" fill="#9D5BFE"/>
<path d="M41.1133 19.1406C41.1133 15.0955 37.8342 11.8164 33.7891 11.8164C29.744 11.8164 26.4648 15.0955 26.4648 19.1406V20.6055H41.1133V19.1406Z" fill="#9D5BFE"/>
</svg>
