<svg width="107" height="100" viewBox="0 0 107 100" fill="none" xmlns="http://www.w3.org/2000/svg">
<g clip-path="url(#clip0)">
<rect width="100" height="100" rx="50" fill="#F5F6F8"/>
<path d="M-7 39H19C23.9706 39 28 43.0294 28 48V104H-7V39Z" fill="#ECEEF3"/>
<path d="M39 44C39 39.0294 43.0294 35 48 35H103V104H39V44Z" fill="#162447"/>
<rect x="46" y="53" width="50" height="4" rx="2" fill="#232F4E"/>
<rect x="39" y="88" width="67" height="20" fill="#9D5BFE" fill-opacity="0.16"/>
<rect x="46" y="45" width="39" height="5" rx="2.5" fill="#2B3755"/>
<circle cx="89.5" cy="47.5" r="2.5" fill="#2B3755"/>
<path d="M90.6354 47.03H89.6354V46H89.3654V47.03H88.3654V47.29H89.3654V48.345H89.6354V47.29H90.6354V47.03Z" fill="white"/>
</g>
<circle cx="92" cy="18" r="15" fill="#9D5BFE"/>
<path d="M89.5852 15.435V13.05H93.7402V24H91.0702V15.435H89.5852Z" fill="white"/>
<defs>
<clipPath id="clip0">
<rect width="100" height="100" rx="50" fill="white"/>
</clipPath>
</defs>
</svg>
