<svg width="107" height="100" viewBox="0 0 107 100" fill="none" xmlns="http://www.w3.org/2000/svg">
<g clip-path="url(#clip0)">
<rect width="100" height="100" rx="50" fill="#F5F6F8"/>
<path d="M50 28C43.3633 28 38 33.3633 38 40V45H34C32.3008 45 31 46.3008 31 48V72C31 73.6992 32.3008 75 34 75H66C67.6992 75 69 73.6992 69 72V48C69 46.3008 67.6992 45 66 45H62V40C62 33.3633 56.6367 28 50 28ZM50 30C55.5664 30 60 34.4336 60 40V45H40V40C40 34.4336 44.4336 30 50 30ZM50 55C51.6992 55 53 56.3008 53 58C53 58.8984 52.6016 59.6875 52 60.1875V63C52 64.1016 51.1016 65 50 65C48.8984 65 48 64.1016 48 63V60.1875C47.3984 59.6875 47 58.8984 47 58C47 56.3008 48.3008 55 50 55Z" fill="#162447"/>
<rect x="34" y="70" width="32" height="3" rx="1.5" fill="#2B3755"/>
<path d="M-6 45H16C20.9706 45 25 49.0294 25 54V95H-6V45Z" fill="url(#paint0_linear)"/>
<path d="M75 55C75 50.0294 79.0294 46 84 46H106V96H75V55Z" fill="url(#paint1_linear)"/>
<path d="M0 59C0 72.2608 5.26785 84.9785 14.6447 94.3553C24.0215 103.732 36.7392 109 50 109C63.2608 109 75.9785 103.732 85.3553 94.3553C94.7322 84.9785 100 72.2608 100 59L76.2966 59C76.2966 65.9743 73.5261 72.6629 68.5945 77.5945C63.6629 82.5261 56.9743 85.2966 50 85.2966C43.0257 85.2966 36.3371 82.5261 31.4055 77.5945C26.4739 72.6629 23.7034 65.9743 23.7034 59H0Z" fill="url(#paint2_linear)"/>
</g>
<circle cx="92" cy="18" r="15" fill="#9D5BFE"/>
<path d="M87.8003 21.945C88.1403 21.675 88.2953 21.55 88.2653 21.57C89.2453 20.76 90.0153 20.095 90.5753 19.575C91.1453 19.055 91.6253 18.51 92.0153 17.94C92.4053 17.37 92.6003 16.815 92.6003 16.275C92.6003 15.865 92.5053 15.545 92.3153 15.315C92.1253 15.085 91.8403 14.97 91.4603 14.97C91.0803 14.97 90.7803 15.115 90.5603 15.405C90.3503 15.685 90.2453 16.085 90.2453 16.605H87.7703C87.7903 15.755 87.9703 15.045 88.3103 14.475C88.6603 13.905 89.1153 13.485 89.6753 13.215C90.2453 12.945 90.8753 12.81 91.5653 12.81C92.7553 12.81 93.6503 13.115 94.2503 13.725C94.8603 14.335 95.1653 15.13 95.1653 16.11C95.1653 17.18 94.8003 18.175 94.0703 19.095C93.3403 20.005 92.4103 20.895 91.2803 21.765H95.3303V23.85H87.8003V21.945Z" fill="white"/>
<defs>
<linearGradient id="paint0_linear" x1="9.5" y1="45" x2="9.5" y2="95" gradientUnits="userSpaceOnUse">
<stop stop-color="#ECEEF3"/>
<stop offset="1" stop-color="#C4C4C4" stop-opacity="0"/>
</linearGradient>
<linearGradient id="paint1_linear" x1="90.5" y1="46" x2="90.5" y2="96" gradientUnits="userSpaceOnUse">
<stop stop-color="#ECEEF3"/>
<stop offset="1" stop-color="#C4C4C4" stop-opacity="0"/>
</linearGradient>
<linearGradient id="paint2_linear" x1="50" y1="109" x2="50" y2="9" gradientUnits="userSpaceOnUse">
<stop stop-color="#ECEEF3"/>
<stop offset="1" stop-color="#C4C4C4" stop-opacity="0"/>
</linearGradient>
<clipPath id="clip0">
<rect width="100" height="100" rx="50" fill="white"/>
</clipPath>
</defs>
</svg>
